<svg id="icons" enable-background="new 0 0 64 64" height="512" viewBox="0 0 64 64" width="512" xmlns="http://www.w3.org/2000/svg"><path d="m60 40.996c-.011 0-.019.006-.029.006h-1.971v-1.094c2.389-1.385 4.002-3.962 4.002-6.914 0-.003-.002-.006-.002-.01v-.366l.552.276c.143.072.296.106.446.106.367 0 .72-.202.896-.553.247-.494.047-1.095-.447-1.342l-.212-.105.211-.105c.494-.247.694-.848.447-1.342-.247-.495-.848-.695-1.342-.447l-.581.291c-.303-4.136-3.758-7.41-7.971-7.41-4.411 0-8 3.587-8 7.996 0 .003.002.006.002.009s-.001.005-.001.008v2.996c0 .005.003.009.003.014.006 2.944 1.615 5.514 3.997 6.896v1.096h-1.971c-.011 0-.019-.006-.029-.006-2.206 0-4 1.794-4 4v5.006c0 .553.447 1 1 1h18c.553 0 1-.447 1-1v-5.006c0-2.206-1.794-4-4-4zm-12-11.014c0-3.306 2.691-5.996 6-5.996s6 2.69 6 5.996c0 .003.002.006.002.009s-.002.006-.002.009h-12c0-.003-.002-.006-.002-.009s.002-.006.002-.009zm.002 3.012c0-.003-.002-.006-.002-.01v-.984h12v.996c0 .002.002.005.002.008-.006 3.301-2.694 5.985-6 5.985-3.309 0-6-2.689-6-5.995zm7.998 7.733v.657l-1.999.999-2.001-1v-.657c.642.166 1.31.264 2.002.264.691-.001 1.358-.098 1.998-.263zm-5.447 3.378c-.045.022-.073.061-.113.088-.06.042-.12.079-.169.133-.044.047-.072.103-.106.157-.033.055-.07.104-.094.165-.025.068-.031.14-.042.212-.008.048-.029.09-.029.14v4.002h-4v-4.006c0-1.096.887-1.987 1.98-1.998.007 0 .013.004.02.004h2.766l.998.498zm11.447 4.897h-10v-3.384l5.236-2.616h2.764c.007 0 .013-.004.02-.004 1.093.011 1.98.902 1.98 1.998z"/><path d="m31.027 56.001h-.011c-.552 0-.994.447-.994 1s.452 1 1.005 1c.552 0 1-.447 1-1s-.448-1-1-1z"/><path d="m22 33.863v4.063c-.002.026-.016.05-.016.077s.014.051.016.077v2.846c-.002.026-.016.05-.016.077 0 3.691 2.016 6.914 5 8.646v1.353h-2c-3.309 0-6 2.691-6 6v2.998c0 1.103.897 2 2 2h22c1.103 0 2-.897 2-2v-2.998c0-3.309-2.691-6-6-6h-2v-1.354c2.984-1.731 5-4.954 5-8.645v-.001c.002-.026.016-.05.016-.078v-7.065c1.721-.447 3-2 3-3.858 0-2.206-1.794-4-4-4h-4.54c-1.1-1.224-2.688-2-4.46-2s-3.36.776-4.46 2h-4.556c-2.206 0-4 1.794-4 4 0 1.863 1.287 3.42 3.016 3.862zm5.631 20.211c-.074.03-.135.079-.199.125-.042.03-.092.051-.128.086-.049.048-.08.11-.119.168-.032.049-.074.091-.098.145-.021.05-.024.107-.038.16-.019.074-.043.146-.045.223 0 .006-.004.012-.004.019v5h-6.011c-.002 0-.003-.001-.005-.001v-2.997c0-2.206 1.794-4 4-4h2.833l1.329.499-1.498.563c-.006.002-.01.008-.017.01zm1.353-2.771v-.762c.947.299 1.954.461 2.999.461s2.053-.162 3.001-.461v.768l-2.993 1.124zm10 1.699c2.206 0 4 1.794 4 4v2.998h-13.984v-4.307l7.167-2.691zm1.016-12.078c-.002.028-.016.052-.016.08 0 4.41-3.589 7.998-8.001 7.998-4.377 0-7.939-3.534-7.994-7.897.001-.018.011-.034.011-.052v-2.049h16zm-17.016-12.924h3.365c-.221.626-.349 1.298-.349 2 0 .552.447 1 1 1s1-.448 1-1c0-2.206 1.794-4 4-4s4 1.794 4 4c0 .552.447 1 1 1s1-.448 1-1c0-.702-.128-1.374-.35-2h3.35c1.103 0 2 .897 2 2s-.897 2-2 2c-.553 0-1 .448-1 1v4.004h-16v-4.004c0-.552-.447-1-1-1-.003 0-.005.001-.008.001s-.005-.001-.008-.001c-1.103 0-2-.897-2-2s.898-2 2-2z"/><path d="m1 51.002h18c.553 0 1-.447 1-1v-5.006c0-2.206-1.794-4-4-4-.011 0-.019.006-.029.006h-1.971v-1.096c2.382-1.383 3.991-3.952 3.997-6.896 0-.005.003-.009.003-.014v-2.996c0-.003-.002-.006-.002-.009s.002-.006.002-.009c0-4.409-3.589-7.996-8-7.996-4.213 0-7.668 3.274-7.971 7.41l-.581-.291c-.493-.248-1.094-.047-1.342.447-.247.494-.047 1.095.447 1.342l.212.106-.211.105c-.494.247-.694.848-.447 1.342.175.351.528.553.895.553.15 0 .303-.034.446-.105l.552-.276v.366c0 .003-.002.006-.002.01 0 2.952 1.613 5.529 4.002 6.914v1.094h-1.971c-.011 0-.019-.006-.029-.006-2.206 0-4 1.794-4 4v5.006c0 .552.447.999 1 .999zm15-8c.007 0 .013-.004.02-.004 1.093.011 1.98.902 1.98 1.998v4.006h-10v-3.384l5.236-2.616zm-8-1.619v-.656c.64.165 1.307.263 1.998.263.692 0 1.36-.098 2.002-.264v.658l-1.999.999zm-4-11.401c0-3.306 2.691-5.996 6-5.996s6 2.69 6 5.996c0 .003.002.006.002.009s-.002.006-.002.009h-12c0-.003-.002-.006-.002-.009s.002-.006.002-.009zm-.002 3.022c0-.003.002-.005.002-.008v-.996h12v.984c0 .003-.002.006-.002.01 0 3.306-2.691 5.995-6 5.995-3.306 0-5.994-2.684-6-5.985zm-1.998 11.992c0-1.096.887-1.987 1.98-1.998.007 0 .013.004.02.004h2.766l.998.498-1.211.605c-.045.022-.073.061-.113.088-.06.042-.12.079-.169.133-.044.047-.072.103-.106.157-.033.055-.07.104-.094.165-.025.068-.031.14-.042.212-.008.048-.029.09-.029.14v4.002h-4z"/><path d="m24.001 21.002h15.999c2.206 0 4-1.794 4-4 0-.552-.447-1-1-1v-1.979c0-5.732-4.4-10.452-10-10.969v-.054c0-.552-.447-1-1-1s-1 .448-1 1v.053c-5.619.498-10.041 5.225-10.041 10.971v1.987c-.532.023-.958.455-.958.992 0 2.205 1.794 3.999 4 3.999zm-1.042-6.979c0-4.974 4.047-9.021 9.021-9.021s9.02 4.047 9.02 9.021v1.979h-18.041zm18.763 3.979c-.347.595-.985 1-1.722 1h-15.999c-.736 0-1.375-.405-1.722-1z"/><path d="m31.979 6.003c-.553 0-1 .448-1 1s.447 1 1 1c3.319 0 6.021 2.701 6.021 6.021 0 .552.447 1 1 1s1-.448 1-1c0-4.423-3.598-8.021-8.021-8.021z"/></svg>